PathFileType	4	(X/Y/Z)	F:\MotionCapture\20160217\3\Generated_files\EMG_test06-Dynamic.trc
DataRate	CameraRate	NumFrames	NumMarkers	Units	OrigDataRate	OrigDataStartFrame	OrigNumFrames
120.00	120.00	        6	39	mm	120.00	87	        99
Frame#	Time	Top.Head			Front.Head			Rear.Head			R.Shoulder			R.Offset			R.Elbow			R.Wrist			L.Shoulder			L.Elbow			L.Wrist			R.ASIS			L.ASIS			V.Sacral			R.Thigh			R.Knee			R.Shank			R.Ankle			R.Heel			R.Toe			L.Thigh			L.Knee			L.Shank			L.Ankle			L.Heel			L.Toe			R1			R2			R3			R4			R5			R6			R7			L1			L2			L3			L4			L5			L6			L7			V_Mid_ASIS			V_Pelvis_Origin			V_R.Hip_JC			V_L.Hip_JC			V_R.Knee_JC			V_L.Knee_JC			V_R.Ankle_JC			V_L.Ankle_JC			V_Mid_Hip			V_Mid_Shoulder			V_R.Hand			V_L.Hand			V_R.Toe_Offset_Static			V_L.Toe_Offset_Static			V_R.Toe_Offset			V_L.Toe_Offset			
		X1	Y1	Z1	X2	Y2	Z2	X3	Y3	Z3	X4	Y4	Z4	X5	Y5	Z5	X6	Y6	Z6	X7	Y7	Z7	X8	Y8	Z8	X9	Y9	Z9	X10	Y10	Z10	X11	Y11	Z11	X12	Y12	Z12	X13	Y13	Z13	X14	Y14	Z14	X15	Y15	Z15	X16	Y16	Z16	X17	Y17	Z17	X18	Y18	Z18	X19	Y19	Z19	X20	Y20	Z20	X21	Y21	Z21	X22	Y22	Z22	X23	Y23	Z23	X24	Y24	Z24	X25	Y25	Z25	X26	Y26	Z26	X27	Y27	Z27	X28	Y28	Z28	X29	Y29	Z29	X30	Y30	Z30	X31	Y31	Z31	X32	Y32	Z32	X33	Y33	Z33	X34	Y34	Z34	X35	Y35	Z35	X36	Y36	Z36	X37	Y37	Z37	X38	Y38	Z38	X39	Y39	Z39	

87	0.717	2352.29272	28.06928	1711.15527	2276.62598	26.61792	1592.21509	2478.46997	20.33048	1685.73389	2484.51196	216.73041	1441.44495	2628.75464	-36.31585	1283.89929	2437.29785	302.47141	1111.15271	2233.63379	260.21136	950.72626	2481.75928	-190.35887	1426.22253	2504.99878	-261.56146	1091.26318	2366.78003	-218.40785	878.32574	2420.90625	185.83478	957.37439	2415.37720	-103.77990	950.37915	2643.77539	37.88186	954.87018	2348.67627	187.07724	589.91406	2411.54932	233.72443	481.21329	2436.67041	178.30896	243.65208	2514.83862	253.67529	88.91531	2578.76978	187.97513	60.17293	2372.06567	243.21687	50.51908	2381.67188	-41.66849	630.91260	2473.59204	-86.58716	470.32727	2465.26270	-4.70580	333.70813	2535.59766	-51.79112	65.21877	2597.33911	6.77624	49.22141	2393.76929	-52.60725	46.71545	2321.47974	222.14079	42.64548	2365.02686	208.08231	56.39816	2457.51685	169.37340	69.68447	2530.26758	162.46176	56.62598	2552.67896	234.65736	61.52858	2476.13257	267.46719	47.66986	2410.28711	282.57056	44.18915	2346.54370	-28.81384	40.93729	2380.88110	-13.83381	50.56743	2474.01147	33.25727	53.80896	2557.34766	36.76748	50.47642	2573.25488	-34.51881	48.02448	2500.75684	-65.55657	40.71891	2437.20459	-83.85799	44.13189																																																	2801.30859	130.53609	346.74957	3033.80933	110.49277	-138.57349	
88	0.725	2351.31104	28.83183	1710.56323	2276.31543	27.61740	1591.69788	2477.50073	20.95560	1685.86157	2484.30200	217.92072	1441.10876	2628.49219	-35.46217	1283.72205	2437.37451	303.61212	1111.17456	2233.74390	260.31772	950.32953	2481.04395	-189.32153	1426.19116	2502.63379	-260.05411	1090.69763	2363.60791	-216.62810	878.91461	2420.73877	187.48991	956.93097	2414.90625	-103.37653	950.43011	2642.88599	38.34464	954.55524	2348.74316	187.20602	589.59290	2412.47021	234.33455	480.73276	2437.81567	178.72731	243.09616	2513.78589	252.23524	87.76186	2579.05225	187.97359	59.76453	2372.32617	243.24101	50.19853	2381.50635	-41.26728	630.68542	2473.04468	-86.26562	470.31421	2465.02881	-4.63287	333.70609	2535.57813	-51.70392	65.17059	2597.33618	6.79934	49.23209	2393.80420	-52.57828	46.68507	2321.82373	222.45450	42.74717	2365.40527	207.97565	56.05807	2457.82324	169.24742	69.19391	2530.55762	162.50499	56.35027	2552.40991	234.35983	60.84190	2477.13354	266.61264	46.84768	2410.69385	282.93030	44.14038	2346.58936	-28.79860	40.98321	2380.27124	-13.56876	50.36877	2474.04395	33.35403	53.80348	2557.34497	36.80921	50.51270	2573.27783	-34.48927	48.01936	2500.91162	-65.65926	40.98147	2437.18237	-83.83547	44.16752																																																	3024.15308	152.00954	-138.22809	3034.32593	110.48170	-139.04588	
89	0.733	2349.97510	29.66712	1709.91504	2276.27856	28.97199	1591.35706	2476.43164	21.96142	1685.89185	2484.03857	218.91698	1440.90100	2628.08984	-34.49975	1283.52332	2438.22314	305.36273	1111.40796	2234.45532	261.16861	949.51361	2481.73096	-188.06207	1426.02795	2500.06250	-259.11087	1091.04895	2360.13721	-214.53008	879.39325	2419.87036	187.68942	956.82098	2412.99805	-102.28072	950.36993	2642.11768	38.71853	954.42120	2349.40894	187.57407	589.10822	2412.89063	234.53271	480.24637	2438.81323	178.77354	242.45868	2514.34180	252.12326	87.56046	2579.30737	188.00038	58.77899	2372.54614	243.13962	49.94513	2380.57886	-41.16166	630.58063	2472.80664	-86.05579	470.26541	2462.54565	-4.00987	333.92648	2535.57495	-51.69405	65.18720	2597.35449	6.79166	49.28512	2393.74585	-52.42113	46.69464	2322.62646	222.64951	42.68678	2365.81836	207.80293	55.66552	2458.35498	169.06418	68.75007	2530.98389	162.44072	55.82410	2553.41235	234.77049	60.76160	2477.50488	266.67087	46.51220	2411.11084	283.00699	43.97329	2346.53638	-28.85633	40.85366	2380.24634	-13.54001	50.36216	2474.08252	33.38656	53.80227	2557.33838	36.84917	50.47030	2573.17236	-34.49286	48.01038	2500.73389	-65.54105	40.72636	2437.25830	-83.80449	44.29181																																																	2801.55737	131.17690	346.80441	3024.95166	152.16722	-138.59424	
90	0.742	2349.31885	30.72526	1709.41150	2279.02612	30.45889	1589.78564	2475.56836	22.70372	1686.08118	2483.88525	220.51018	1440.65967	2627.66602	-33.63348	1283.39697	2438.03296	306.74805	1110.29456	2234.79370	261.71832	948.73474	2481.25903	-186.69162	1425.94446	2497.72754	-257.43439	1090.40002	2357.32983	-212.75252	879.59937	2419.08887	187.87074	956.94946	2412.57471	-101.51764	950.35107	2641.58667	38.97324	954.23401	2350.07617	188.23125	588.36658	2413.60229	234.69899	480.04047	2437.83936	178.01826	242.23685	2514.24365	254.28923	88.04593	2579.69141	188.15880	58.08248	2372.81787	242.06175	48.88776	2379.68750	-40.55148	630.44244	2472.80493	-86.09792	470.51224	2462.63477	-3.94502	333.49640	2535.58691	-51.69975	65.22726	2597.31665	6.87001	49.31330	2393.72778	-52.42985	46.65165	2323.29077	222.97533	43.06171	2365.98877	207.53061	55.42406	2458.72705	168.64189	68.17027	2531.43555	162.39771	55.37240	2553.73438	234.56976	60.16194	2477.90210	266.58661	46.19229	2411.52905	283.10904	43.90945	2346.46191	-28.84296	41.00233	2380.16626	-13.54228	50.39442	2474.11499	33.37135	53.76275	2557.54346	36.99089	50.77567	2573.20337	-34.46518	48.10269	2500.79468	-65.57374	40.81048	2437.28052	-83.80661	44.28507																																																	2692.44824	55.39976	277.23880	3024.95581	152.09114	-138.62923	
91	0.750	2348.55884	32.45795	1709.30835	2278.89697	31.11584	1589.69629	2474.58765	23.73377	1686.03235	2483.69409	221.40765	1440.67419	2627.25757	-32.70549	1283.34106	2437.74487	307.38150	1110.41699	2235.64282	262.26523	947.25433	2480.53979	-185.59578	1426.06543	2495.72290	-256.26013	1090.64087	2354.50391	-210.94209	880.14221	2418.50977	188.57083	956.76599	2412.28906	-100.91936	950.39258	2640.60620	39.39310	953.97943	2349.72827	188.72342	588.03375	2414.20850	234.70975	479.85196	2438.22876	178.05888	241.91760	2514.60425	254.09383	87.48831	2579.89502	188.06450	57.48200	2372.96533	241.99347	48.88612	2378.41895	-40.00529	630.09436	2472.44678	-85.67375	470.42517	2462.23022	-3.67302	333.61935	2535.60156	-51.63961	65.25502	2597.33276	6.86649	49.31179	2393.77026	-52.43267	46.72668	2323.53760	222.97470	43.15995	2366.08496	207.47952	55.18470	2459.12207	168.37282	67.52947	2531.74097	162.32654	54.61678	2553.90991	234.56387	59.73855	2478.13867	266.43707	45.91821	2411.78955	283.24606	43.84875	2346.51025	-28.78915	40.99688	2380.16553	-13.59998	50.46574	2474.20435	33.39523	53.71807	2557.33105	36.86456	50.53983	2573.19751	-34.48356	48.10843	2500.91113	-65.64387	41.03290	2437.21509	-83.82049	44.25184																																																	2800.84155	131.65434	345.23038	2221.08887	-118.06709	1565.72168	
92	0.758	2347.52246	33.49977	1708.93604	2276.63745	31.89273	1589.57544	2473.70532	24.56262	1686.11560	2482.82251	222.73172	1440.49219	2626.62891	-31.77234	1283.27258	2438.01855	309.03485	1110.49902	2237.69189	263.85977	945.98260	2479.70532	-184.80243	1426.09790	2493.25781	-254.87184	1089.97351	2352.03662	-209.63609	880.26202	2418.29443	189.83273	956.27826	2411.02441	-99.93898	950.60461	2639.91650	39.75865	953.91968	2349.92456	189.34987	587.50848	2415.10620	234.49205	479.48999	2438.41602	177.88792	241.65318	2515.56860	252.26045	86.81544	2580.20386	187.99275	57.03437	2372.97339	241.87746	48.73666	2377.89722	-39.55042	629.87958	2471.95020	-85.27251	470.53055	2462.06543	-3.58441	333.66977	2535.58716	-51.62122	65.27348	2597.32178	6.94321	49.34340	2393.72021	-52.40766	46.66647	2323.64038	223.10240	43.18054	2365.93066	207.20384	54.94443	2459.40625	168.13597	67.16710	2531.85303	163.52380	53.95681	2554.06226	234.38062	59.16130	2478.24829	266.08899	45.50692	2411.89355	283.18576	43.76315	2346.42676	-28.83358	40.89378	2380.19092	-13.58897	50.44563	2474.15063	33.36488	53.69246	2557.28931	36.96008	50.44257	2573.15161	-34.43307	48.12877	2500.80371	-65.54855	40.88226	2437.19287	-83.11752	44.15770																																																	2799.92627	131.29024	344.01642	
